<?xml version="1.0" standalone="no"?>
<!DOCTYPE svg PUBLIC "-//W3C//DTD SVG 20010904//EN"
 "http://www.w3.org/TR/2001/REC-SVG-20010904/DTD/svg10.dtd">
<svg version="1.0" xmlns="http://www.w3.org/2000/svg"
 width="800.000000pt" height="600.000000pt" viewBox="0 0 800.000000 600.000000"
 preserveAspectRatio="xMidYMid meet">

<g transform="translate(0.000000,600.000000) scale(0.100000,-0.100000)"
fill="#000000" stroke="none">
<path d="M4449 5767 c-94 -113 -116 -207 -69 -302 37 -73 51 -77 101 -30 59
58 91 116 92 173 2 56 -40 209 -59 216 -8 3 -34 -21 -65 -57z"/>
<path d="M3115 5793 c-13 -35 -17 -188 -6 -229 14 -51 80 -128 132 -155 l39
-20 11 28 c33 88 34 164 2 228 -18 36 -142 165 -159 165 -7 0 -15 -8 -19 -17z
m77 -88 c-2 -14 -8 -22 -14 -19 -5 3 -6 14 -3 25 4 10 2 19 -4 19 -5 0 -12 -8
-14 -17 -3 -12 -5 -9 -6 8 -1 34 9 42 29 24 11 -10 15 -25 12 -40z m33 -6 c-3
-3 2 -12 10 -19 17 -14 20 -30 6 -30 -5 0 -11 9 -14 21 -3 12 -10 19 -15 15
-5 -3 -9 1 -9 8 0 7 6 13 13 13 7 0 11 -4 9 -8z m-83 -51 c-7 -7 -12 -8 -12
-2 0 14 12 26 19 19 2 -3 -1 -11 -7 -17z"/>
<path d="M3591 5700 c-125 -45 -180 -87 -217 -165 -26 -55 -31 -126 -11 -144
18 -14 116 11 175 45 54 32 86 83 113 180 17 64 19 79 7 90 -11 10 -22 9 -67
-6z m-46 -88 c-3 -3 -11 0 -18 7 -9 10 -8 11 6 5 10 -3 15 -9 12 -12z m50 8
c-3 -5 -12 -10 -18 -10 -7 0 -6 4 3 10 19 12 23 12 15 0z m-40 -118 c-3 -3
-11 0 -18 7 -9 10 -8 11 6 5 10 -3 15 -9 12 -12z"/>
<path d="M4017 5703 c-9 -17 15 -158 35 -205 27 -62 103 -131 169 -153 28 -10
53 -15 56 -12 9 10 5 121 -6 164 -11 42 -48 94 -85 123 -22 16 -153 90 -160
90 -3 0 -7 -3 -9 -7z m209 -165 c4 -7 4 -10 -1 -6 -4 4 -15 2 -24 -5 -14 -11
-14 -10 -2 6 16 20 18 21 27 5z"/>
<path d="M4663 5510 c-77 -18 -179 -106 -171 -148 4 -25 91 -51 168 -51 86 -1
129 21 208 101 74 76 72 82 -34 98 -79 11 -125 11 -171 0z"/>
<path d="M2803 5483 c-18 -2 -33 -10 -33 -17 0 -24 115 -150 165 -181 45 -28
56 -30 141 -30 51 0 95 3 99 7 11 10 -41 101 -82 142 -21 21 -57 47 -81 58
-43 19 -148 30 -209 21z"/>
<path d="M5353 5358 c-66 -83 -84 -120 -90 -187 -4 -44 -1 -68 17 -108 12 -28
30 -59 39 -67 16 -15 22 -12 71 36 70 70 94 125 86 198 -9 83 -45 190 -65 190
-4 0 -30 -28 -58 -62z"/>
<path d="M3702 5353 c-72 -83 -97 -139 -96 -213 0 -67 23 -130 59 -160 14 -12
22 -7 66 36 63 62 89 116 88 180 0 68 -39 198 -60 202 -10 2 -34 -17 -57 -45z"/>
<path d="M4307 5323 c-87 -176 -82 -287 17 -382 34 -33 37 -34 54 -18 61 55
89 191 55 268 -26 59 -91 159 -103 159 -5 0 -16 -12 -23 -27z"/>
<path d="M2719 5291 c-129 -95 -168 -188 -133 -313 19 -65 182 29 219 125 21
57 18 230 -5 234 -8 2 -45 -19 -81 -46z"/>
<path d="M2265 5300 c-12 -19 16 -166 41 -217 14 -29 42 -66 62 -83 34 -28
127 -70 154 -70 7 0 9 27 6 83 -7 131 -43 183 -177 256 -83 46 -78 44 -86 31z"/>
<path d="M4924 5231 c13 -140 62 -229 155 -275 97 -49 111 -44 111 38 0 67
-26 139 -68 185 -33 37 -169 121 -195 121 -6 0 -8 -25 -3 -69z"/>
<path d="M3263 5275 c-9 -24 15 -152 38 -205 28 -62 64 -98 134 -131 90 -43
95 -41 95 34 0 131 -53 210 -188 280 -62 32 -73 35 -79 22z"/>
<path d="M4705 5185 c-133 -58 -202 -148 -193 -253 l3 -37 49 2 c67 2 165 52
199 100 28 41 72 186 63 209 -8 21 -33 17 -121 -21z"/>
<path d="M5560 5101 c-50 -16 -89 -41 -129 -87 -22 -26 -41 -50 -41 -53 1 -30
94 -61 179 -61 76 1 129 27 207 101 59 58 63 63 45 75 -37 26 -204 42 -261 25z"/>
<path d="M3908 5087 c-92 -26 -186 -116 -162 -155 16 -24 82 -44 154 -45 83
-2 133 22 218 104 57 56 61 63 45 74 -36 26 -192 39 -255 22z"/>
<path d="M5900 4954 c-71 -86 -95 -139 -95 -209 0 -65 32 -148 62 -159 24 -10
98 57 127 116 32 65 33 118 4 218 -19 67 -32 90 -48 89 -3 0 -25 -25 -50 -55z"/>
<path d="M3580 4913 c-131 -149 -160 -255 -102 -378 45 -94 49 -95 121 -26 77
74 106 134 104 216 -2 64 -50 226 -69 232 -6 2 -31 -18 -54 -44z"/>
<path d="M2135 4935 c-5 -2 -36 -11 -67 -20 -32 -9 -58 -22 -58 -28 1 -16 121
-104 179 -130 63 -29 159 -29 224 0 26 12 47 26 47 32 0 20 -97 107 -142 129
-44 20 -148 30 -183 17z"/>
<path d="M2993 4879 c-77 -52 -135 -119 -154 -176 -16 -51 -8 -168 14 -190 17
-17 21 -16 84 17 36 19 80 52 98 73 l33 38 17 -50 c31 -93 137 -183 244 -206
l33 -7 -4 98 c-6 150 -49 215 -187 290 l-71 38 0 51 c0 45 -12 76 -29 74 -4 0
-38 -22 -78 -50z"/>
<path d="M2487 4883 c-6 -10 9 -133 22 -181 15 -56 65 -127 111 -161 45 -32
137 -67 148 -56 15 14 7 150 -11 197 -23 60 -95 127 -186 172 -77 39 -78 40
-84 29z"/>
<path d="M5464 4828 c13 -126 43 -193 112 -251 28 -24 121 -67 144 -67 6 0 10
33 10 73 0 85 -28 154 -81 203 -34 31 -160 104 -180 104 -8 0 -9 -21 -5 -62z"/>
<path d="M4640 4871 c-32 -10 -90 -40 -90 -46 0 -3 19 -26 43 -52 49 -54 145
-103 200 -103 57 0 207 40 207 55 0 19 -115 103 -178 131 -54 24 -130 30 -182
15z"/>
<path d="M4227 4817 c-63 -73 -106 -145 -119 -196 l-11 -43 -51 6 c-28 4 -80
9 -117 13 -119 10 -228 -38 -295 -133 l-35 -49 21 -17 c11 -9 55 -24 96 -34
132 -29 212 -5 314 92 31 30 61 54 66 54 6 0 15 -20 22 -45 6 -24 24 -58 40
-76 l28 -31 52 47 c92 83 129 172 111 268 -15 83 -50 185 -64 191 -9 3 -32
-16 -58 -47z"/>
<path d="M1676 4722 c-3 -6 -11 -45 -17 -87 -14 -95 -3 -156 41 -220 26 -37
110 -105 131 -105 15 0 39 95 39 154 0 81 -27 133 -107 204 -71 63 -78 67 -87
54z"/>
<path d="M6065 4676 c-50 -23 -87 -57 -119 -107 -14 -23 -15 -28 -2 -38 25
-21 106 -41 165 -41 75 1 129 27 206 101 75 72 72 84 -22 99 -100 17 -173 12
-228 -14z"/>
<path d="M2122 4609 c-145 -58 -197 -115 -217 -236 -10 -61 8 -77 72 -63 98
22 165 67 199 131 7 15 22 59 33 99 17 62 18 74 6 86 -16 17 -5 19 -93 -17z"/>
<path d="M4900 4573 c-71 -153 -62 -247 35 -346 l37 -38 25 33 c64 84 81 183
44 263 -25 55 -90 155 -100 155 -5 0 -23 -30 -41 -67z"/>
<path d="M4730 4583 c-155 -15 -226 -40 -293 -102 -47 -43 -90 -127 -85 -164
4 -29 48 -39 131 -32 134 12 197 56 279 194 47 79 49 86 32 98 -10 7 -20 12
-23 11 -3 0 -22 -3 -41 -5z"/>
<path d="M6341 4500 c-130 -54 -187 -110 -211 -212 -10 -40 -10 -55 1 -74 11
-21 17 -23 48 -18 67 12 139 45 171 77 41 41 55 69 79 157 17 62 18 74 6 86
-17 17 -6 19 -94 -16z"/>
<path d="M5315 4475 c-130 -56 -195 -139 -195 -247 0 -28 5 -38 21 -43 49 -16
158 25 213 79 37 37 77 141 80 209 2 45 -21 45 -119 2z"/>
<path d="M2291 4467 c-41 -12 -76 -27 -78 -33 -5 -15 105 -99 174 -133 80 -40
128 -46 205 -26 62 16 108 38 108 53 0 18 -108 114 -154 137 -64 32 -151 33
-255 2z"/>
<path d="M5814 4439 c-128 -54 -193 -130 -197 -230 -3 -68 11 -77 87 -59 74
17 145 65 173 115 32 59 65 188 50 197 -20 13 -39 9 -113 -23z"/>
<path d="M2845 4408 c-12 -37 -25 -139 -24 -197 1 -77 12 -113 56 -175 35 -50
139 -125 152 -110 19 21 44 121 44 178 0 84 -32 143 -125 231 -86 83 -97 91
-103 73z"/>
<path d="M1368 4402 c-27 -2 -48 -7 -48 -12 0 -8 56 -80 102 -131 64 -71 163
-104 259 -87 l58 10 -25 49 c-33 67 -87 124 -137 147 -44 21 -128 30 -209 24z"/>
<path d="M3374 4369 c-131 -91 -183 -163 -191 -262 -6 -69 10 -145 33 -154 24
-9 125 47 176 98 60 60 78 118 78 250 0 79 -3 98 -16 103 -9 3 -17 6 -18 6 -2
0 -29 -18 -62 -41z"/>
<path d="M3647 4293 c-3 -5 -10 -43 -17 -85 -12 -76 -10 -165 5 -201 7 -17 4
-18 -41 -10 -115 19 -224 -10 -289 -77 -39 -40 -30 -54 70 -105 71 -36 84 -40
154 -40 70 0 84 4 149 38 l72 37 37 -20 c21 -11 40 -20 44 -20 13 0 44 129 44
185 -1 83 -28 134 -122 228 -73 72 -96 87 -106 70z"/>
<path d="M4175 4258 c-78 -54 -138 -116 -167 -170 -18 -35 -23 -58 -23 -125 0
-72 3 -86 23 -105 l22 -22 55 27 c68 33 130 89 158 141 17 33 22 63 25 160 3
92 1 120 -9 127 -19 12 -17 13 -84 -33z"/>
<path d="M1775 4213 c-97 -121 -117 -210 -70 -311 35 -76 48 -77 116 -4 60 63
79 107 78 172 0 44 -50 193 -66 198 -6 2 -33 -23 -58 -55z"/>
<path d="M2443 4190 c-86 -63 -138 -129 -149 -187 -11 -56 0 -152 20 -171 16
-16 21 -15 87 20 l69 37 0 -42 c0 -59 25 -168 48 -214 30 -58 109 -127 175
-152 92 -34 90 -35 85 72 -6 154 -52 219 -210 303 l-89 47 20 21 c41 45 54 89
59 193 3 74 1 107 -8 118 -7 8 -15 15 -19 15 -3 0 -43 -27 -88 -60z"/>
<path d="M4432 4231 c-23 -4 -48 -13 -54 -19 -28 -28 85 -183 162 -222 50 -25
91 -32 181 -32 l79 1 -17 -32 c-37 -70 -9 -231 48 -283 18 -16 20 -16 46 7 97
89 143 165 143 239 0 74 -55 250 -79 250 -3 0 -30 -30 -60 -66 l-55 -65 -25
33 c-116 150 -235 211 -369 189z"/>
<path d="M1947 4197 c-9 -23 20 -171 43 -225 28 -66 93 -124 168 -152 80 -30
85 -25 80 68 -8 137 -59 209 -198 281 -88 46 -86 46 -93 28z"/>
<path d="M6358 4173 c-26 -9 -66 -31 -88 -51 -39 -33 -40 -35 -24 -53 10 -11
46 -34 81 -51 100 -49 156 -46 277 16 89 46 95 51 80 67 -30 33 -193 90 -254
88 -14 0 -46 -7 -72 -16z"/>
<path d="M5212 4146 c-63 -30 -61 -38 18 -109 53 -48 121 -77 179 -77 31 0
199 37 210 47 9 7 -76 75 -142 115 -60 36 -78 42 -140 45 -61 3 -80 0 -125
-21z"/>
<path d="M5814 4105 c-28 -14 -61 -37 -75 -51 l-24 -26 25 -20 c40 -33 130
-71 181 -76 57 -5 102 9 196 61 72 40 72 41 51 58 -11 10 -56 32 -99 49 -103
39 -183 41 -255 5z"/>
<path d="M1325 4101 c-11 -20 56 -160 101 -210 51 -57 126 -91 201 -91 l46 0
-6 38 c-4 20 -21 66 -39 101 -41 79 -96 121 -194 145 -38 9 -76 19 -86 22 -9
3 -19 0 -23 -5z"/>
<path d="M6199 3994 c-18 -22 -6 -141 19 -190 11 -22 37 -55 57 -73 40 -35
174 -106 183 -97 3 4 1 43 -5 87 -19 143 -85 234 -197 272 -39 13 -46 13 -57
1z"/>
<path d="M5687 3943 c-4 -3 -7 -36 -7 -73 0 -100 40 -172 129 -230 l23 -16
-40 -58 c-43 -60 -66 -138 -56 -184 11 -52 47 -122 67 -128 24 -8 99 62 129
121 23 43 24 71 15 217 -10 155 -37 229 -103 288 -57 50 -138 83 -157 63z"/>
<path d="M2999 3877 c-135 -101 -184 -200 -159 -321 16 -78 29 -86 96 -53 70
35 142 101 165 152 34 79 34 276 -1 282 -8 2 -53 -25 -101 -60z"/>
<path d="M4274 3889 c-57 -7 -140 -48 -176 -86 -17 -19 -20 -28 -12 -41 19
-30 154 -93 215 -99 l56 -6 -19 -49 c-44 -116 -16 -237 75 -326 l44 -43 38 57
c84 126 85 237 2 359 l-27 39 77 44 77 45 -23 18 c-29 24 -164 75 -226 86 -27
5 -73 6 -101 2z"/>
<path d="M5390 3853 c-211 -21 -314 -83 -366 -219 -25 -65 -10 -78 93 -78 153
1 224 46 315 199 42 72 45 80 30 92 -10 7 -21 12 -27 11 -5 -1 -26 -3 -45 -5z"/>
<path d="M3821 3776 c-129 -89 -184 -162 -197 -259 -7 -50 9 -131 30 -152 29
-29 179 67 224 143 25 43 27 57 30 173 5 153 1 157 -87 95z"/>
<path d="M1756 3786 c-44 -12 -81 -27 -83 -33 -5 -14 131 -117 192 -144 70
-31 171 -31 243 0 28 13 52 28 52 33 0 22 -107 120 -156 143 -67 32 -139 32
-248 1z"/>
<path d="M3256 3771 c-10 -15 15 -173 35 -227 35 -93 119 -168 224 -199 l44
-14 7 36 c9 50 -3 148 -24 196 -27 59 -87 113 -188 169 -96 54 -91 51 -98 39z"/>
<path d="M1365 3736 c-60 -19 -176 -86 -173 -100 5 -17 108 -64 179 -82 92
-24 179 -3 254 60 l29 25 -23 25 c-29 31 -124 73 -181 80 -26 3 -62 0 -85 -8z"/>
<path d="M5096 3500 c-27 -5 -53 -13 -58 -18 -14 -14 35 -105 83 -157 l40 -44
-23 -53 c-32 -75 -30 -157 5 -231 43 -86 47 -87 113 -26 75 71 105 124 111
199 l6 59 74 3 74 3 -34 48 c-122 171 -248 241 -391 217z"/>
<path d="M4835 3490 c-71 -11 -154 -45 -197 -80 -37 -30 -98 -137 -98 -171 0
-31 37 -42 124 -37 86 6 140 23 192 63 39 30 148 201 140 221 -6 15 -74 17
-161 4z"/>
<path d="M3900 3470 c0 -11 18 -59 40 -107 70 -151 162 -222 297 -231 l72 -5
-15 62 c-25 108 -73 182 -148 226 -32 19 -213 75 -241 75 -3 0 -5 -9 -5 -20z"/>
<path d="M2262 3446 c-46 -14 -87 -28 -90 -31 -9 -9 80 -86 145 -125 80 -49
128 -62 208 -58 70 4 175 40 175 60 0 20 -117 125 -165 148 -71 35 -165 37
-273 6z"/>
<path d="M1899 3456 c-9 -9 19 -206 36 -255 22 -66 59 -123 106 -165 43 -40
142 -91 195 -102 l31 -6 6 60 c13 123 -26 246 -102 320 -22 21 -82 62 -135 91
-98 54 -127 66 -137 57z"/>
<path d="M6250 3434 c-71 -11 -139 -28 -170 -44 -73 -38 -138 -135 -126 -186
6 -22 11 -24 74 -24 139 0 205 41 281 173 27 47 31 60 21 72 -12 15 -28 16
-80 9z"/>
<path d="M1525 3308 c-74 -162 -61 -270 43 -372 l41 -39 40 62 c52 81 67 148
46 216 -19 64 -102 205 -122 205 -8 0 -28 -30 -48 -72z"/>
<path d="M3062 3323 c-76 -20 -102 -31 -100 -42 4 -20 132 -116 198 -148 78
-38 190 -38 273 0 l59 27 -21 29 c-33 45 -107 107 -158 131 -71 33 -132 34
-251 3z"/>
<path d="M3620 3325 c0 -10 52 -223 115 -472 63 -249 115 -456 115 -460 0 -4
-27 37 -60 91 -165 271 -279 385 -482 481 -138 65 -354 117 -530 126 -75 4
-66 -8 14 -21 611 -100 830 -282 943 -784 14 -65 24 -121 21 -124 -10 -10 -97
21 -151 53 -92 56 -153 114 -305 295 -214 255 -303 333 -435 382 -88 34 -271
33 -370 -1 -155 -53 -181 -74 -50 -41 333 85 616 -98 829 -535 281 -577 393
-1583 226 -2028 -36 -97 -113 -165 -168 -150 -12 3 -22 1 -22 -5 0 -9 112 -32
259 -52 121 -17 313 -13 461 10 151 22 339 26 500 10 56 -6 105 -9 107 -6 3 3
-13 22 -34 43 l-40 38 -16 165 c-35 343 -41 475 -42 815 0 387 12 545 51 684
33 117 119 288 198 392 119 158 350 356 513 441 57 30 77 48 55 48 -16 0 -259
-143 -382 -225 -167 -111 -285 -211 -376 -320 -78 -92 -142 -145 -176 -145
-26 0 -124 104 -149 157 -26 56 -34 143 -20 233 12 78 43 174 131 400 63 165
100 299 100 364 0 60 -10 51 -34 -29 -10 -33 -47 -121 -81 -195 -63 -135 -125
-309 -185 -516 -17 -60 -41 -140 -52 -179 l-21 -70 -19 95 c-28 138 -96 334
-176 505 -104 225 -254 539 -258 544 -2 2 -4 -4 -4 -14z"/>
<path d="M5695 3139 c-182 -23 -270 -82 -321 -214 -26 -70 -14 -78 111 -73
152 6 207 42 296 195 44 75 45 80 28 91 -10 7 -24 11 -31 11 -7 -1 -44 -6 -83
-10z"/>
<path d="M6005 3133 c-41 -11 -46 -22 -24 -64 28 -56 85 -117 133 -142 33 -17
63 -22 154 -25 l114 -4 -16 31 c-27 51 -131 155 -181 180 -46 23 -139 36 -180
24z"/>
<path d="M1080 3071 c0 -21 127 -167 172 -198 58 -38 135 -56 204 -47 77 9 82
15 57 66 -29 60 -98 135 -147 161 -34 18 -62 22 -163 25 -84 3 -123 1 -123 -7z"/>
<path d="M1835 2946 c-85 -21 -277 -129 -269 -150 5 -13 174 -85 244 -104 63
-18 130 -22 183 -11 66 14 155 61 196 103 31 32 31 32 12 53 -25 26 -115 78
-168 97 -62 22 -142 27 -198 12z"/>
<path d="M6069 2840 c-61 -11 -99 -31 -148 -81 -66 -67 -56 -91 45 -115 125
-30 207 0 318 115 38 39 39 41 21 55 -11 8 -49 17 -85 21 -36 4 -74 8 -85 10
-11 2 -41 -1 -66 -5z"/>
<path d="M5437 2791 c-59 -12 -63 -22 -31 -80 41 -76 90 -129 148 -159 46 -24
63 -27 185 -30 110 -3 132 -2 126 9 -26 45 -114 152 -151 183 -80 67 -184 96
-277 77z"/>
<path d="M1258 2707 c-53 -25 -178 -139 -178 -161 0 -18 13 -21 125 -36 125
-16 193 -1 277 63 l45 34 27 -63 c56 -127 152 -202 273 -212 63 -5 63 -5 63
22 0 39 -36 133 -65 172 -41 54 -85 81 -172 106 -52 15 -90 33 -102 47 -44 51
-212 67 -293 28z"/>
<path d="M2241 2640 c-174 -46 -245 -120 -296 -311 -42 -158 -40 -160 93 -110
174 67 252 126 298 226 29 64 43 177 24 200 -16 19 -28 18 -119 -5z"/>
<path d="M5918 2543 c-35 -9 -12 -67 55 -140 64 -70 104 -86 230 -91 81 -3
107 -2 107 8 0 40 -135 179 -203 211 -40 18 -142 24 -189 12z"/>
<path d="M5789 2427 c-42 -68 -52 -103 -47 -166 3 -47 13 -72 47 -129 23 -38
51 -78 61 -87 19 -17 20 -15 46 41 56 126 65 181 39 254 -19 53 -80 130 -103
130 -9 0 -29 -19 -43 -43z"/>
<path d="M1607 2284 c-37 -11 -69 -35 -128 -92 -52 -50 -76 -81 -71 -89 11
-18 146 -36 228 -31 91 6 163 44 217 114 l37 49 -21 17 c-48 40 -186 57 -262
32z"/>
<path d="M1950 2128 c-64 -31 -143 -114 -158 -164 -17 -60 -16 -218 2 -234 29
-23 193 108 231 185 25 49 28 192 6 218 -18 22 -27 21 -81 -5z"/>
</g>
</svg>
